<?xml version="1.0" encoding="UTF-8" standalone="no"?>
<!-- Created with Inkscape (http://www.inkscape.org/) -->

<svg
   width="259.82507mm"
   height="48.435989mm"
   viewBox="0 0 259.82507 48.435989"
   version="1.1"
   id="svg5"
   xml:space="preserve"
   xmlns="http://www.w3.org/2000/svg"
   xmlns:svg="http://www.w3.org/2000/svg"><defs
     id="defs2" /><g
     id="layer1"
     transform="translate(-1753.2973,-101.04825)"><text
       xml:space="preserve"
       style="font-size:35.2777px;font-family:Gotham;-inkscape-font-specification:Gotham;fill:#000000;fill-opacity:1;stroke-width:4.99999;stroke-linecap:round"
       x="1813.0276"
       y="126.80097"
       id="text236-5-8-6"><tspan
         id="tspan234-3-4-14"
         style="font-style:normal;font-variant:normal;font-weight:normal;font-stretch:normal;font-family:'Clab Personal Use';-inkscape-font-specification:'Clab Personal Use';fill:#000000;fill-opacity:1;stroke-width:5"
         x="1813.0276"
         y="126.80097">Shapesmith</tspan></text><g
       id="g17972-0-8-3-1"
       transform="matrix(2.2217636,1.2827358,-1.2827358,2.2217636,2211.4855,156.41582)"><path
         d="m -153.12424,66.268306 c 0.63829,0.389756 1.19142,0.940428 1.59215,1.634526 0.39544,0.68491 0.59565,1.428366 0.61857,2.166276 -1.04394,0.632949 -1.84062,1.633594 -2.20968,2.821533 -0.36907,-1.188094 -1.16635,-2.188416 -2.21072,-2.821016 0.0225,-0.738378 0.22243,-1.482081 0.61805,-2.16731 0.40053,-0.69374 0.95354,-1.244419 1.59163,-1.634009 z m -7.02972,4.059201 c 0.65668,-0.357897 1.41014,-0.561586 2.21161,-0.561579 0.79087,-6e-6 1.53483,0.198335 2.18534,0.54744 0.0262,1.220554 0.49442,2.410821 1.33868,3.324406 -1.21346,-0.274423 -2.4784,-0.08412 -3.54843,0.504032 -0.62821,-0.388675 -1.17231,-0.933671 -1.56792,-1.618902 -0.40054,-0.693739 -0.60093,-1.448 -0.61928,-2.195397 z m 5.1e-4,8.117519 c 0.0184,-0.747653 0.21872,-1.502014 0.61946,-2.196105 0.39543,-0.684916 0.93918,-1.230031 1.56677,-1.618836 1.07012,0.587605 2.33504,0.777227 3.54836,0.502873 -0.84439,0.913671 -1.31205,2.104297 -1.33771,3.325048 -0.65071,0.349703 -1.39474,0.54841 -2.18597,0.548408 -0.80107,10e-7 -1.55447,-0.203581 -2.21091,-0.561388 z m 7.03023,4.058318 c -0.63829,-0.389756 -1.19142,-0.940428 -1.59215,-1.634526 -0.39544,-0.68491 -0.59565,-1.428366 -0.61857,-2.166276 1.04394,-0.632949 1.84062,-1.633594 2.20968,-2.821533 0.36907,1.188094 1.16635,2.188416 2.21072,2.821016 -0.0225,0.738378 -0.22243,1.482081 -0.61805,2.16731 -0.40053,0.69374 -0.95354,1.244419 -1.59163,1.634009 z m 7.02972,-4.059201 c -0.65668,0.357897 -1.41014,0.561586 -2.21161,0.561579 -0.79087,6e-6 -1.53483,-0.198335 -2.18534,-0.54744 -0.0262,-1.220554 -0.49442,-2.410821 -1.33868,-3.324406 1.21346,0.274423 2.4784,0.08412 3.54843,-0.504032 0.62821,0.388675 1.17231,0.933671 1.56792,1.618902 0.40054,0.693739 0.60093,1.448 0.61928,2.195397 z m -5.1e-4,-8.117519 c -0.0184,0.747653 -0.21872,1.502014 -0.61946,2.196105 -0.39543,0.684916 -0.93918,1.230031 -1.56677,1.618836 -1.07012,-0.587605 -2.33504,-0.777227 -3.54836,-0.502873 0.84439,-0.913671 1.31205,-2.104297 1.33771,-3.325048 0.65071,-0.349703 1.39474,-0.54841 2.18597,-0.548408 0.80107,-10e-7 1.55447,0.203581 2.21091,0.561388 z"
         style="color:#000000;fill:#000000;fill-opacity:1;stroke-linecap:round;-inkscape-stroke:none"
         id="path17908-5-6-1-0" /><path
         d="m -150.92644,70.580155 c -0.10771,1.346968 -0.80434,2.624109 -1.98282,3.434932 0.11308,-1.425725 0.87052,-2.667713 1.98282,-3.434932 z m -4.39445,-7.4e-5 c 1.11265,0.766764 1.87037,2.008633 1.98333,3.434639 -1.17818,-0.810793 -1.87505,-2.087749 -1.98333,-3.434639 z m -2.19729,3.80567 c 1.22036,-0.580204 2.67471,-0.615476 3.96615,-2.93e-4 -1.29126,0.614932 -2.74557,0.579964 -3.96615,2.93e-4 z m 2.19716,3.805744 c 0.10771,-1.346968 0.80434,-2.624109 1.98282,-3.434932 -0.11308,1.425725 -0.87052,2.667713 -1.98282,3.434932 z m 4.39445,7.4e-5 c -1.11265,-0.766764 -1.87037,-2.008633 -1.98333,-3.434639 1.17818,0.810793 1.87505,2.087749 1.98333,3.434639 z m 2.19729,-3.80567 c -1.22036,0.580204 -2.67471,0.615476 -3.96615,2.93e-4 1.29126,-0.614932 2.74557,-0.579964 3.96615,-2.93e-4 z"
         style="color:#000000;fill:#000000;fill-opacity:1;stroke-linecap:round;-inkscape-stroke:none"
         id="path17931-6-7-0-3" /><path
         d="m -150.81327,65.590828 c 0.81722,-0.0181 1.64977,0.181086 2.41019,0.620118 1.36854,0.790128 2.17852,2.171378 2.29547,3.633886 -0.66422,-0.322569 -1.40948,-0.503845 -2.19677,-0.503845 -0.78769,0 -1.5336,0.181476 -2.19831,0.504362 -0.0531,-0.736507 -0.2689,-1.472672 -0.66249,-2.15439 -0.39383,-0.682125 -0.92316,-1.237455 -1.53479,-1.651579 0.58919,-0.280016 1.23291,-0.434069 1.8867,-0.448552 z m -8.77192,2.396581 c 0.39293,-0.716783 0.98171,-1.338199 1.74213,-1.777226 1.36854,-0.790127 2.96973,-0.800965 4.29477,-0.170993 -0.61146,0.413947 -1.14108,0.968723 -1.53472,1.650536 -0.39385,0.68216 -0.60964,1.418875 -0.66237,2.155974 -0.66438,-0.322268 -1.40982,-0.503462 -2.197,-0.503462 -0.78765,4e-6 -1.53325,0.180752 -2.1977,0.503378 0.0521,-0.650262 0.24054,-1.284766 0.55489,-1.858207 z m -2.31046,8.794997 c -0.42429,-0.698683 -0.66806,-1.519285 -0.66806,-2.397344 0,-1.580255 0.79121,-2.972343 1.9993,-3.804879 0.0528,0.736516 0.2684,1.472568 0.66205,2.154381 0.39384,0.68216 0.92396,1.237399 1.53594,1.651612 -0.61128,0.414239 -1.14092,0.96921 -1.53451,1.650928 -0.39382,0.682129 -0.61009,1.418207 -0.66291,2.154957 -0.5371,-0.370246 -0.99237,-0.850697 -1.33181,-1.409655 z m 6.46146,6.398416 c -0.81722,0.0181 -1.64977,-0.181086 -2.41019,-0.620118 -1.36854,-0.790128 -2.17852,-2.171378 -2.29547,-3.633886 0.66422,0.322569 1.40948,0.503845 2.19677,0.503845 0.78769,0 1.5336,-0.181476 2.19831,-0.504362 0.0531,0.736507 0.2689,1.472672 0.66249,2.15439 0.39383,0.682125 0.92316,1.237455 1.53479,1.651579 -0.58919,0.280016 -1.23291,0.434069 -1.8867,0.448552 z m 8.77192,-2.396581 c -0.39293,0.716783 -0.98171,1.338199 -1.74213,1.777226 -1.36854,0.790127 -2.96973,0.800965 -4.29477,0.170993 0.61146,-0.413947 1.14108,-0.968723 1.53472,-1.650536 0.39385,-0.68216 0.60964,-1.418875 0.66237,-2.155974 0.66438,0.322268 1.40982,0.503462 2.197,0.503462 0.78765,-4e-6 1.53325,-0.180752 2.1977,-0.503378 -0.0521,0.650262 -0.24054,1.284766 -0.55489,1.858207 z m 2.31046,-8.794997 c 0.42429,0.698683 0.66806,1.519285 0.66806,2.397344 0,1.580255 -0.79121,2.972343 -1.9993,3.804879 -0.0528,-0.736516 -0.2684,-1.472568 -0.66205,-2.154381 -0.39384,-0.68216 -0.92396,-1.237399 -1.53594,-1.651612 0.61128,-0.414239 1.14092,-0.96921 1.53451,-1.650928 0.39382,-0.682129 0.61009,-1.418207 0.66291,-2.154957 0.5371,0.370246 0.99237,0.850697 1.33181,1.409655 z"
         style="color:#000000;fill:#000000;fill-opacity:1;stroke-linecap:round;-inkscape-stroke:none"
         id="path17954-8-1-2-1" /></g><g
       id="g22731"
       transform="translate(91.010791,-4.762501)"><text
         xml:space="preserve"
         style="font-style:normal;font-variant:normal;font-weight:normal;font-stretch:normal;font-size:15.875px;font-family:'Clab Personal Use';-inkscape-font-specification:'Clab Personal Use';fill:#000000;fill-opacity:1;stroke-width:4.99999;stroke-linecap:round"
         x="1791.3197"
         y="154.05624"
         id="text455-7-9-0"><tspan
           id="tspan453-6-7-8"
           style="font-style:normal;font-variant:normal;font-weight:normal;font-stretch:normal;font-size:15.875px;font-family:Gotham;-inkscape-font-specification:Gotham;fill:#000000;fill-opacity:1;stroke-width:5"
           x="1791.3197"
           y="154.05624">STUDIO</tspan></text><path
         style="opacity:1;fill:#000000;fill-opacity:1;stroke:#000000;stroke-width:1;stroke-linecap:butt;stroke-dasharray:none;stroke-opacity:1"
         d="m 1780.7821,148.49999 h -58.625"
         id="path21955" /><path
         style="fill:#000000;fill-opacity:1;stroke:#000000;stroke-width:1;stroke-linecap:butt;stroke-dasharray:none;stroke-opacity:1"
         d="m 1922.1116,148.49999 h -57.7069"
         id="path21955-5" /></g></g></svg>
